<svg xmlns="http://www.w3.org/2000/svg" version="1.1" xmlns:xlink="http://www.w3.org/1999/xlink" xmlns:svgjs="http://svgjs.dev/svgjs" width="1500" height="1500" viewBox="0 0 1500 1500"><rect width="1500" height="1500" fill="#ffffff"></rect><g transform="matrix(0.6666666666666666,0,0,0.6666666666666666,249.39393939393938,625.0227334219366)"><svg viewBox="0 0 396 99" data-background-color="#ffffff" preserveAspectRatio="xMidYMid meet" height="375" width="1500" xmlns="http://www.w3.org/2000/svg" xmlns:xlink="http://www.w3.org/1999/xlink"><g id="tight-bounds" transform="matrix(1,0,0,1,0.2400000000000091,-0.009002435086870264)"><svg viewBox="0 0 395.52 99.01800487017375" height="99.01800487017375" width="395.52"><g><svg viewBox="0 0 557.6745623098833 139.6132244305523" height="99.01800487017375" width="395.52"><g><rect width="5.993632730974759" height="79.75467920094006" x="140.47079153970765" y="29.929272614806116" fill="#000000" opacity="1" stroke-width="0" stroke="transparent" fill-opacity="1" class="rect-qz-0" data-fill-palette-color="primary" rx="1%" id="qz-0" data-palette-color="#000000"></rect></g><g transform="matrix(1,0,0,1,162.15456230988335,36.57549588155112)"><svg viewBox="0 0 395.52 66.46223266745005" height="66.46223266745005" width="395.52"><g id="textblocktransform"><svg viewBox="0 0 395.52 66.46223266745005" height="66.46223266745005" width="395.52" id="textblock"><g><svg viewBox="0 0 395.52 66.46223266745005" height="66.46223266745005" width="395.52"><g transform="matrix(1,0,0,1,0,0)"><svg width="395.52" viewBox="2 -35.35 212.73 35.75" height="66.46223266745005" data-palette-color="#000000"><path d="M28.15-9.05L28.15-1.5Q25.1 0.4 19.35 0.4L19.35 0.4Q11.95 0.4 6.98-4.38 2-9.15 2-16.75L2-16.75Q2-24.45 6.83-29.3 11.65-34.15 19.4-34.15L19.4-34.15Q25.1-34.15 28.15-32.25L28.15-32.25 28.15-24.85Q24.4-27.15 19.8-27.15L19.8-27.15Q15.75-27.15 13-24.33 10.25-21.5 10.25-16.75L10.25-16.75Q10.25-12.1 13-9.38 15.75-6.65 20.1-6.65L20.1-6.65Q24.8-6.65 28.15-9.05L28.15-9.05ZM42.95-5L42.95-5Q44.5-5 45.35-5.95 46.2-6.9 46.2-8.55L46.2-8.55 46.2-10.4 43.85-10.4Q42-10.4 41-9.6 40-8.8 40-7.55L40-7.55Q40-5 42.95-5ZM46.55 0L46.55-3.1Q44.95 0.15 40.25 0.15L40.25 0.15Q36.55 0.15 34.47-1.95 32.4-4.05 32.4-7.2L32.4-7.2Q32.4-10.85 35.07-12.88 37.75-14.9 43-14.9L43-14.9 46.2-14.9 46.2-16.65Q46.2-19.85 41.95-19.85L41.95-19.85Q37.85-19.85 34.35-17.55L34.35-17.55 34.35-24.1Q37.35-25.8 43-25.8L43-25.8Q48.4-25.8 51.05-23.48 53.7-21.15 53.7-16.25L53.7-16.25 53.7 0 46.55 0ZM76.75-7.65L76.75-7.65Q76.75-3.9 74.05-1.85 71.35 0.2 66.9 0.2L66.9 0.2Q62.3 0.2 59.2-1.35L59.2-1.35 59.2-7.85Q62.65-5.45 66.5-5.45L66.5-5.45Q69.25-5.45 69.25-7.2L69.25-7.2Q69.25-7.65 69-8.05 68.75-8.45 68.15-8.8 67.55-9.15 67.05-9.38 66.55-9.6 65.6-10 64.65-10.4 64.15-10.65L64.15-10.65Q59.1-13.05 59.1-17.85L59.1-17.85Q59.1-21.55 61.92-23.6 64.75-25.65 68.95-25.65L68.95-25.65Q72.85-25.65 75.45-24.6L75.45-24.6 75.45-18.35Q72.8-19.9 69.25-19.9L69.25-19.9Q67.95-19.9 67.25-19.38 66.55-18.85 66.55-18.05L66.55-18.05Q66.55-17.6 66.8-17.2 67.05-16.8 67.62-16.45 68.2-16.1 68.72-15.83 69.25-15.55 70.17-15.15 71.1-14.75 71.65-14.45L71.65-14.45Q73.95-13.25 75.35-11.68 76.75-10.1 76.75-7.65ZM104.49-16.15L104.49 0 97.19 0 97.19-15Q97.19-17.2 96.09-18.45 94.99-19.7 93.24-19.7L93.24-19.7Q92.49-19.7 91.82-19.48 91.14-19.25 90.34-18.68 89.54-18.1 89.04-16.73 88.54-15.35 88.54-13.4L88.54-13.4 88.54 0 81.24 0 81.24-35.35 88.54-35.35 88.54-21.05Q90.49-25.6 96.14-25.6L96.14-25.6Q99.84-25.6 102.17-23.25 104.49-20.9 104.49-16.15L104.49-16.15ZM129.39-18.85L129.39-12.7 118.24-12.7 118.24 0 110.49 0 110.49-33.7 131.04-33.7 131.04-27.55 118.24-27.55 118.24-18.85 129.39-18.85ZM143.09-35.35L143.09 0 135.79 0 135.79-35.35 143.09-35.35ZM172.94-12.8L172.94-12.8Q172.94-7.05 169.66-3.33 166.39 0.4 160.54 0.4L160.54 0.4Q154.59 0.4 151.34-3.18 148.09-6.75 148.09-12.35L148.09-12.35Q148.09-18.2 151.49-21.98 154.89-25.75 160.54-25.75L160.54-25.75Q166.44-25.75 169.69-22.1 172.94-18.45 172.94-12.8ZM156.89-17.95Q155.69-15.9 155.69-12.65 155.69-9.4 156.91-7.33 158.14-5.25 160.59-5.25L160.59-5.25Q162.99-5.25 164.16-7.28 165.34-9.3 165.34-12.55L165.34-12.55Q165.34-20 160.49-20L160.49-20Q158.09-20 156.89-17.95ZM192.78-8.3L190.58 0 183.08 0 174.93-25.35 182.48-25.35 184.68-17Q185.48-13.85 186.03-11.33 186.58-8.8 186.68-7.85L186.68-7.85 186.83-6.9Q187.18-9.9 189.28-17L189.28-17 191.73-25.35 198.03-25.35 200.43-17Q201.33-13.8 201.93-11.28 202.53-8.75 202.68-7.8L202.68-7.8 202.83-6.9Q203.18-9.85 205.18-17L205.18-17 207.53-25.35 214.73-25.35 206.63 0 199.13 0 196.93-8.3Q196.23-11 195.71-13.35 195.18-15.7 195.03-16.7L195.03-16.7 194.88-17.7Q194.38-14.35 192.78-8.3L192.78-8.3Z" opacity="1" transform="matrix(1,0,0,1,0,0)" fill="#000000" class="wordmark-text-0" data-fill-palette-color="primary" id="text-0"></path></svg></g></svg></g></svg></g></svg></g><g><svg viewBox="0 0 124.78065350050672 139.6132244305523" height="139.6132244305523" width="124.78065350050672"><g><svg xmlns="http://www.w3.org/2000/svg" xmlns:xlink="http://www.w3.org/1999/xlink" version="1.1" x="0" y="0" viewBox="9.780639945993345 5 80.43836005400667 90" enable-background="new 0 0 100 100" xml:space="preserve" height="139.6132244305523" width="124.78065350050672" class="icon-icon-0" data-fill-palette-color="accent" id="icon-0"><g fill="#615dff" data-fill-palette-color="accent"><path d="M66.031 16.763c-2.95 0-5.35 2.4-5.35 5.35s2.4 5.35 5.35 5.35c2.95 0 5.35-2.4 5.35-5.35S68.981 16.763 66.031 16.763zM66.031 26.31c-2.314 0-4.197-1.883-4.197-4.197 0-2.314 1.883-4.197 4.197-4.197 2.314 0 4.197 1.883 4.197 4.197C70.228 24.427 68.345 26.31 66.031 26.31z" fill="#615dff" data-fill-palette-color="accent"></path><path d="M66.031 18.911c-1.765 0-3.202 1.436-3.202 3.202 0 1.766 1.436 3.202 3.202 3.202 1.765 0 3.202-1.436 3.202-3.202C69.232 20.347 67.796 18.911 66.031 18.911zM66.031 24.162c-1.13 0-2.049-0.919-2.049-2.049 0-1.13 0.919-2.049 2.049-2.049 1.13 0 2.049 0.919 2.049 2.049C68.08 23.242 67.161 24.162 66.031 24.162z" fill="#615dff" data-fill-palette-color="accent"></path><path d="M66.031 72.538c-2.95 0-5.35 2.4-5.35 5.35 0 2.95 2.4 5.35 5.35 5.35 2.95 0 5.35-2.4 5.35-5.35C71.381 74.938 68.981 72.538 66.031 72.538zM66.031 82.085c-2.314 0-4.197-1.883-4.197-4.197 0-2.314 1.883-4.197 4.197-4.197 2.314 0 4.197 1.883 4.197 4.197C70.228 80.202 68.345 82.085 66.031 82.085z" fill="#615dff" data-fill-palette-color="accent"></path><path d="M66.031 74.686c-1.765 0-3.202 1.436-3.202 3.202 0 1.765 1.436 3.202 3.202 3.202 1.765 0 3.202-1.436 3.202-3.202C69.232 76.123 67.796 74.686 66.031 74.686zM66.031 79.937c-1.13 0-2.049-0.919-2.049-2.049 0-1.13 0.919-2.049 2.049-2.049 1.13 0 2.049 0.919 2.049 2.049C68.08 79.018 67.161 79.937 66.031 79.937z" fill="#615dff" data-fill-palette-color="accent"></path><path d="M90.219 42.24c0-1.907-0.84-3.574-2.085-4.469 1.245-0.894 2.085-2.562 2.085-4.469 0-2.847-1.871-5.164-4.171-5.164-0.237 0-0.47 0.026-0.697 0.073V5H46.72v27.707H26.375c-0.465 0-4.388 0.047-5.839 4.812-1.379 4.532-10.353 39.915-10.734 41.417-0.094 0.372 0.131 0.75 0.503 0.845 0.057 0.015 0.115 0.022 0.172 0.022 0.31 0 0.593-0.222 0.673-0.537 0.093-0.368 9.347-36.817 10.716-41.317 1.202-3.949 4.317-3.813 4.444-3.804 0.018 0.001 0.036-0.048 0.055-0.048h41.409c0.42 1.39 1.456 5.416-0.345 8.034-1.137 1.654-3.259 2.541-6.307 2.541-11.617 0-19.453 0.74-19.531 0.747-0.382 0.037-0.662 0.375-0.625 0.757 0.037 0.382 0.375 0.657 0.758 0.622 0.037-0.004 1.848-0.176 4.993-0.354-0.1 6.57-2.063 11.656-5.839 15.121-6.39 5.862-15.934 5.115-16.042 5.107-0.382-0.036-0.719 0.249-0.753 0.632-0.034 0.382 0.249 0.72 0.632 0.753 0.088 0.008 0.604 0.049 1.427 0.049 3.041 0 10.274-0.568 15.667-5.509 2.221-2.035 3.861-4.572 4.91-7.588v26.144c-6.461 3.052-13.257 2.519-13.343 2.512-0.333-0.032-0.639 0.183-0.73 0.504l-1.589 5.648c-0.104 0.37 0.111 0.754 0.481 0.857 0.063 0.018 0.126 0.026 0.189 0.026 0.304 0 0.583-0.201 0.669-0.507l1.437-5.108c1.788 0.076 7.342 0.074 12.886-2.384V95h38.632V65.206c0.227 0.047 0.459 0.073 0.697 0.073 2.3 0 4.171-2.316 4.171-5.164 0-1.907-0.84-3.574-2.085-4.469 1.245-0.894 2.085-2.562 2.085-4.469 0-1.907-0.84-3.574-2.085-4.469C89.38 45.815 90.219 44.147 90.219 42.24zM88.829 33.303c0 2.081-1.247 3.774-2.781 3.774s-2.781-1.693-2.781-3.774 1.247-3.774 2.781-3.774S88.829 31.222 88.829 33.303zM47.848 6.175h36.376V28.66c-1.388 0.839-2.346 2.605-2.346 4.643 0 1.907 0.84 3.574 2.085 4.469-1.245 0.894-2.085 2.562-2.085 4.469 0 1.907 0.84 3.574 2.085 4.469-0.446 0.32-0.84 0.74-1.162 1.235-0.186-1.566-0.585-3.091-1.202-4.551-0.226-0.536-0.48-1.056-0.758-1.562V9.042H51.232v23.665h-3.384V6.175zM77.169 61.067c-2.968 2.968-6.913 4.602-11.11 4.602-4.197 0-8.143-1.634-11.11-4.602-2.968-2.968-4.602-6.913-4.602-11.11 0-1.266 0.152-2.507 0.442-3.707 0.836-0.033 1.721-0.063 2.652-0.09v1.654h-2.35v1.034h2.35v1.598h-2.35v1.081h2.334c0.092 3.478 2.971 6.308 6.491 6.308 3.531 0 6.419-2.831 6.512-6.308h10.888v4.653h1.034v-4.653h2.35v-1.081h-2.35v-1.598h2.35v-1.034h-2.334c-0.092-3.525-2.972-6.308-6.491-6.308-1.016 0-1.978 0.231-2.836 0.643 1.275-2.579 0.772-5.763 0.312-7.556 2.941 0.623 5.644 2.077 7.819 4.253 2.968 2.968 4.602 6.913 4.602 11.11C81.771 54.154 80.137 58.1 77.169 61.067zM79.665 59.924V89.83H52.359V59.796c0.531 0.738 1.123 1.435 1.774 2.086 1.549 1.549 3.352 2.765 5.36 3.614 2.08 0.88 4.288 1.326 6.565 1.326 2.276 0 4.485-0.446 6.565-1.326 2.008-0.849 3.812-2.065 5.36-3.614C78.598 61.269 79.158 60.615 79.665 59.924zM68.921 33.201c-0.103-0.268-0.361-0.495-0.649-0.495H52.359V10.17h27.306V39.99c-0.507-0.691-1.067-1.345-1.681-1.958-1.549-1.549-3.352-2.764-5.36-3.614-1.178-0.498-2.399-0.852-3.649-1.07C68.948 33.272 68.928 33.22 68.921 33.201zM71.874 42.567c2.935 0 5.336 2.334 5.428 5.248H66.425C66.517 44.901 68.928 42.567 71.874 42.567zM77.315 48.849v1.598H54.474v-1.598H77.315zM65.364 51.527c-0.092 2.914-2.502 5.247-5.448 5.247-2.935 0-5.336-2.334-5.428-5.247H65.364zM66.045 45.085c-0.414 0.823-0.657 1.748-0.683 2.73H54.474v-1.681c2.032-0.05 4.257-0.082 6.648-0.082C63.084 46.051 64.727 45.725 66.045 45.085zM84.224 93.825H47.848V50.136c0.158-1.2 0.245-2.456 0.261-3.766 0.472-0.024 0.967-0.047 1.484-0.07-0.264 1.192-0.399 2.414-0.399 3.657 0 2.276 0.446 4.485 1.326 6.565 0.214 0.506 0.452 0.999 0.712 1.479v32.958H80.84V58.084c0.278-0.506 0.532-1.026 0.758-1.562 0.37-0.875 0.659-1.774 0.874-2.69 0.364 0.75 0.878 1.375 1.49 1.815-1.245 0.894-2.085 2.562-2.085 4.469 0 2.038 0.958 3.803 2.346 4.643V93.825zM88.829 60.115c0 2.081-1.247 3.774-2.781 3.774-0.241 0-0.474-0.046-0.697-0.125V63.69h-0.187c-1.101-0.503-1.897-1.914-1.897-3.575 0-2.081 1.247-3.774 2.781-3.774S88.829 58.035 88.829 60.115zM88.829 51.178c0 2.081-1.247 3.774-2.781 3.774s-2.781-1.693-2.781-3.774c0-2.081 1.247-3.774 2.781-3.774S88.829 49.097 88.829 51.178zM83.268 42.24c0-2.081 1.247-3.774 2.781-3.774s2.781 1.693 2.781 3.774c0 2.081-1.247 3.774-2.781 3.774S83.268 44.321 83.268 42.24z" fill="#615dff" data-fill-palette-color="accent"></path></g></svg></g></svg></g></svg></g><defs></defs></svg><rect width="395.52" height="99.01800487017375" fill="none" stroke="none" visibility="hidden"></rect></g></svg></g></svg>